<?xml version="1.0" encoding="UTF-8" standalone="no"?>
<svg
   width="36in"
   height="24in"
   viewBox="0 0 914.40002 609.59999"
   version="1.1"
   preserveAspectRatio="xMidYMid"
   id="svg1"
   sodipodi:docname="resized_box.svg"
   inkscape:version="1.3.2 (091e20e, 2023-11-25, custom)"
   xmlns:inkscape="http://www.inkscape.org/namespaces/inkscape"
   xmlns:sodipodi="http://sodipodi.sourceforge.net/DTD/sodipodi-0.dtd"
   xmlns="http://www.w3.org/2000/svg"
   xmlns:svg="http://www.w3.org/2000/svg">
  <defs
     id="defs1" />
  <sodipodi:namedview
     id="namedview1"
     pagecolor="#ffffff"
     bordercolor="#000000"
     borderopacity="0.25"
     inkscape:showpageshadow="2"
     inkscape:pageopacity="0.0"
     inkscape:pagecheckerboard="0"
     inkscape:deskcolor="#d1d1d1"
     inkscape:document-units="mm"
     inkscape:zoom="2.8284271"
     inkscape:cx="1612.3802"
     inkscape:cy="73.008775"
     inkscape:window-width="1920"
     inkscape:window-height="1017"
     inkscape:window-x="-8"
     inkscape:window-y="-8"
     inkscape:window-maximized="1"
     inkscape:current-layer="svgGroup" />
  <g
     id="svgGroup"
     stroke-linecap="round"
     fill-rule="evenodd"
     font-size="12px"
     stroke="#000"
     stroke-width="0.25mm"
     fill="none"
     style="fill:none;stroke:#000000;stroke-width:0.254;stroke-dasharray:none"
     transform="translate(11.632546,14.31698)">
    <path
       d="m 432.6414,218.61724 h 25.39 v 2 h 26.11 v -2 h 25.39 v 2 h 39.935 v -40.285 h -2 v -25.39 h 2 v -40.285 h -39.935 v 2 h -25.39 v -2 h -26.11 v 2 h -25.39 v -2 h -39.935 v 40.285 h 2 v 25.39 h -2 v 40.285 h 39.935 z"
       id="front_outsideCutPath"
       stroke="#000000"
       stroke-width="0.01"
       style="stroke:#000000;stroke-width:0.254;stroke-dasharray:none"
       vector-effect="non-scaling-stroke" />
    <path
       d="m 222.49332,263.54087 h 25.39 v 2 h 26.11 v -2 h 25.39 v 2 h 26.11 v -2 h 25.39 v 2 h 24.885 v -39.925 h 2 v -26.11 h -2 v -39.925 h -24.885 v 2 h -25.39 v -2 h -26.11 v 2 h -25.39 v -2 h -26.11 v 2 h -25.39 v -2 h -24.885 v 39.925 h -2 v 26.11 h 2 v 39.925 h 24.885 z"
       id="left_outsideCutPath"
       stroke="#000000"
       stroke-width="0.01"
       style="stroke:#000000;stroke-width:0.254;stroke-dasharray:none"
       vector-effect="non-scaling-stroke" />
    <path
       d="m 197.31388,58.63323 v 25.39 h -2 v 26.11 h 2 v 37.575 h 24.525 v 2 h 26.11 v -2 h 25.39 v 2 h 26.11 v -2 h 25.39 v 2 h 26.11 v -2 h 24.525 v -37.575 h 2 v -26.11 h -2 v -25.39 h 2 v -26.11 h -2 V -5.0517701 h -24.525 v -2 h -26.11 v 2 h -25.39 v -2 h -26.11 v 2 h -25.39 v -2 h -26.11 v 2 h -24.525 V 32.52323 h -2 v 26.11 z"
       id="top_outsideCutPath"
       stroke="#000000"
       stroke-width="0.01"
       style="stroke:#000000;stroke-width:0.254;stroke-dasharray:none"
       vector-effect="non-scaling-stroke" />
    <path
       d="m 431.51162,103.1501 h 25.39 v 2 h 26.11 v -2 h 25.39 v 2 h 39.935 V 64.865105 h -2 v -25.39 h 2 V -0.80989416 h -39.935 V 1.1901058 h -25.39 v -1.99999996 h -26.11 V 1.1901058 h -25.39 v -1.99999996 h -39.935 V 39.475105 h 2 v 25.39 h -2 V 105.1501 h 39.935 z"
       id="back_outsideCutPath"
       stroke="#000000"
       stroke-width="0.01"
       style="stroke:#000000;stroke-width:0.254;stroke-dasharray:none"
       vector-effect="non-scaling-stroke" />
    <path
       d="m 25.715198,262.7772 h 25.39 v 2 h 26.11 v -2 H 102.6052 v 2 h 26.11 v -2 h 25.39 v 2 h 24.885 v -39.925 h 2 v -26.11 h -2 v -39.925 h -24.885 v 2 h -25.39 v -2 h -26.11 v 2 H 77.215198 v -2 h -26.11 v 2 h -25.39 v -2 H 0.83019816 v 39.925 H -1.1698018 v 26.11 h 1.99999996 v 39.925 H 25.715198 Z"
       id="right_outsideCutPath"
       stroke="#000000"
       stroke-width="0.01"
       style="stroke:#000000;stroke-width:0.254;stroke-dasharray:none"
       vector-effect="non-scaling-stroke" />
    <path
       d="m 1.350225,57.804342 v 25.39 H -0.64977504 V 109.30434 H 1.350225 v 37.575 h 24.525 v 2 h 26.11 v -2 h 25.39 v 2 h 26.109995 v -2 h 25.39 v 2 h 26.11 v -2 h 24.525 v -37.575 h 2 V 83.194342 h -2 v -25.39 h 2 v -26.11 h -2 V -5.8806581 h -24.525 v -2 h -26.11 v 2 h -25.39 v -2 H 77.375225 v 2 h -25.39 v -2 h -26.11 v 2 h -24.525 V 31.694342 h -2.00000004 v 26.11 z"
       id="bottom_outsideCutPath"
       stroke="#000000"
       stroke-width="0.01"
       style="stroke:#000000;stroke-width:0.254;stroke-dasharray:none"
       vector-effect="non-scaling-stroke" />
    <circle
       style="fill:none;stroke:#000000;stroke-width:0.254;stroke-dasharray:none;stroke-opacity:1"
       id="path1"
       cx="142.18721"
       cy="32.175343"
       r="32.887157" />
    <rect
       style="fill:none;stroke:#000000;stroke-width:0.254;stroke-dasharray:none;stroke-opacity:1"
       id="rect3"
       width="25.188993"
       height="17.251493"
       x="42.87104"
       y="22.834003" />
    <rect
       style="fill:none;stroke:#000000;stroke-width:0.254;stroke-dasharray:none;stroke-opacity:1"
       id="rect2"
       width="18.772507"
       height="44.172459"
       x="-22.254902"
       y="395.71039"
       transform="rotate(-90)" />
    <rect
       x="-123.9282"
       y="-122.19596"
       transform="scale(-1)"
       class="st0"
       width="8.7367105"
       height="16.736712"
       id="rect2-9"
       style="fill:none;stroke:#000000;stroke-width:0.263289;stroke-linecap:round;stroke-miterlimit:11.3386;stroke-dasharray:none" />
    <circle
       class="st0"
       cx="140.56931"
       cy="114.15566"
       r="2.7372262"
       id="circle1"
       style="fill:none;stroke:#000000;stroke-width:0.254;stroke-linecap:round;stroke-miterlimit:11.3386;stroke-dasharray:none" />
    <circle
       class="st0"
       cx="140.3506"
       cy="83.148071"
       r="2.7372262"
       id="circle1-0"
       style="fill:none;stroke:#000000;stroke-width:0.254;stroke-linecap:round;stroke-miterlimit:11.3386;stroke-dasharray:none" />
    <rect
       x="-171.84608"
       y="-118.77541"
       transform="scale(-1)"
       class="st0"
       width="2.8279865"
       height="8.8279867"
       id="rect1"
       style="fill:none;stroke:#000000;stroke-width:0.172014;stroke-linecap:round;stroke-miterlimit:11.3386;stroke-dasharray:none" />
    <g
       class="st2"
       id="g21"
       style="opacity:0.92;stroke-width:0;stroke-dasharray:none"
       transform="matrix(0.44588202,0,0,0.44588202,-23.323649,-44.921919)">
	<path
   class="st3"
   d="m 86.014101,286.17083 c 1.52576,-0.19072 3.814404,-0.57216 6.484484,-0.57216 3.24224,0 5.7216,0.76288 7.24737,2.09792 1.335035,1.14432 2.288635,3.05152 2.288635,5.34017 0,2.28864 -0.76288,4.19584 -1.9072,5.53088 -1.716475,1.9072 -4.577285,2.8608 -8.010245,2.8608 -0.9536,0 -1.9072,0 -2.67008,-0.19072 v 10.29888 h -3.432964 z m 3.432964,12.58753 c 0.76288,0.19072 1.71648,0.19072 2.8608,0.19072 4.00512,0 6.48449,-1.9072 6.48449,-5.53088 0,-3.43297 -2.47937,-5.14945 -6.10305,-5.14945 -1.52576,0 -2.67008,0.19072 -3.24224,0.19072 z"
   id="path2"
   style="fill:#4d4d4d;fill-opacity:1;stroke:#000000;stroke-width:0;stroke-miterlimit:10;stroke-dasharray:none" />

	<path
   class="st3"
   d="m 106.23043,284.45435 h 3.43296 v 27.27297 h -3.43296 z"
   id="path3"
   style="fill:#4d4d4d;fill-opacity:1;stroke:#000000;stroke-width:0;stroke-miterlimit:10;stroke-dasharray:none" />

	<path
   class="st3"
   d="m 125.68387,311.91804 -0.19072,-2.28864 h -0.19072 c -0.9536,1.52576 -3.05152,2.8608 -5.7216,2.8608 -3.8144,0 -5.7216,-2.67008 -5.7216,-5.34016 0,-4.57728 4.00512,-7.05664 11.25248,-6.86592 v -0.38144 c 0,-1.52576 -0.38144,-4.38656 -4.19584,-4.38656 -1.71648,0 -3.62368,0.57216 -4.768,1.33504 l -0.76288,-2.28864 c 1.52576,-0.9536 3.8144,-1.71648 6.10304,-1.71648 5.7216,0 7.05665,3.8144 7.05665,7.6288 v 7.05664 c 0,1.52576 0,3.24224 0.38144,4.38656 z m -0.57216,-9.536 c -3.62368,0 -7.81952,0.57216 -7.81952,4.19584 0,2.28864 1.52576,3.24224 3.24224,3.24224 2.47936,0 4.00512,-1.52576 4.57728,-3.05152 0.19072,-0.38144 0.19072,-0.76288 0.19072,-1.14432 v -3.24224 z"
   id="path4"
   style="fill:#4d4d4d;fill-opacity:1;stroke:#000000;stroke-width:0;stroke-miterlimit:10;stroke-dasharray:none" />

	<path
   class="st3"
   d="m 133.88484,298.1862 c 0,-1.9072 0,-3.43296 -0.19072,-4.95872 h 3.05152 l 0.19072,3.05152 v 0 c 0.9536,-1.71648 3.05152,-3.43296 6.10304,-3.43296 2.67008,0 6.48448,1.52576 6.48448,8.01024 v 11.06176 h -3.43296 v -10.68032 c 0,-3.05152 -1.14432,-5.53088 -4.38656,-5.53088 -2.28864,0 -4.00512,1.52576 -4.57728,3.43296 -0.19072,0.38144 -0.19072,0.9536 -0.19072,1.52576 v 11.25248 H 133.5034 V 298.1862 Z"
   id="path5"
   style="fill:#4d4d4d;fill-opacity:1;stroke:#000000;stroke-width:0;stroke-miterlimit:10;stroke-dasharray:none" />

	<path
   class="st3"
   d="m 159.05989,287.88731 v 5.34017 h 4.768 v 2.67008 h -4.768 v 10.10816 c 0,2.28864 0.57216,3.62368 2.47936,3.62368 0.9536,0 1.52576,-0.19072 1.9072,-0.19072 l 0.19072,2.47936 c -0.57216,0.19072 -1.71648,0.38144 -3.05152,0.38144 -1.52576,0 -2.8608,-0.57216 -3.62368,-1.33504 -0.95361,-0.9536 -1.33505,-2.67008 -1.33505,-4.768 v -10.10816 h -2.8608 v -2.67008 h 2.8608 v -4.57729 z"
   id="path6"
   style="fill:#4d4d4d;fill-opacity:1;stroke:#000000;stroke-width:0;stroke-miterlimit:10;stroke-dasharray:none" />

	<path
   class="st3"
   d="m 172.21957,311.91804 -6.6752,-25.93793 h 3.62368 l 3.05152,13.15969 c 0.76288,3.24224 1.52576,6.48448 1.9072,8.96384 v 0 c 0.38144,-2.67008 1.14432,-5.7216 2.09792,-8.96384 l 3.43296,-13.15969 h 3.43296 l 3.24225,13.15969 c 0.76288,3.05152 1.33504,6.10304 1.71648,8.96384 v 0 c 0.57216,-2.8608 1.33504,-5.7216 2.09792,-8.96384 l 3.43296,-13.15969 h 3.43296 l -7.43808,25.93793 h -3.43296 l -3.05153,-13.54112 c -0.76288,-3.24224 -1.33504,-5.91232 -1.71648,-8.39169 v 0 c -0.38144,2.67009 -0.9536,5.14945 -1.9072,8.39169 l -3.62368,13.54112 z"
   id="path7"
   style="fill:#4d4d4d;fill-opacity:1;stroke:#000000;stroke-width:0;stroke-miterlimit:10;stroke-dasharray:none" />

	<path
   class="st3"
   d="m 209.40998,311.91804 -0.19072,-2.28864 h -0.19072 c -0.9536,1.52576 -3.05152,2.8608 -5.7216,2.8608 -3.8144,0 -5.7216,-2.67008 -5.7216,-5.34016 0,-4.57728 4.00512,-7.05664 11.25248,-6.86592 v -0.38144 c 0,-1.52576 -0.38144,-4.38656 -4.19584,-4.38656 -1.71648,0 -3.62368,0.57216 -4.768,1.33504 l -0.76288,-2.28864 c 1.52576,-0.9536 3.8144,-1.71648 6.10304,-1.71648 5.7216,0 7.05664,3.8144 7.05664,7.6288 v 7.05664 c 0,1.52576 0,3.24224 0.38144,4.38656 z m -0.57216,-9.536 c -3.62368,0 -7.81952,0.57216 -7.81952,4.19584 0,2.28864 1.52576,3.24224 3.24224,3.24224 2.47936,0 4.00512,-1.52576 4.57728,-3.05152 0.19072,-0.38144 0.19072,-0.76288 0.19072,-1.14432 v -3.24224 z"
   id="path8"
   style="fill:#4d4d4d;fill-opacity:1;stroke:#000000;stroke-width:0;stroke-miterlimit:10;stroke-dasharray:none" />

	<path
   class="st3"
   d="m 221.61607,287.88731 v 5.34017 h 4.768 v 2.67008 h -4.768 v 10.10816 c 0,2.28864 0.57216,3.62368 2.47936,3.62368 0.9536,0 1.52576,-0.19072 1.9072,-0.19072 l 0.19072,2.47936 c -0.57216,0.19072 -1.71648,0.38144 -3.05152,0.38144 -1.52576,0 -2.8608,-0.57216 -3.62368,-1.33504 -0.9536,-0.9536 -1.33504,-2.67008 -1.33504,-4.768 v -10.10816 h -2.8608 v -2.67008 h 2.8608 v -4.57729 z"
   id="path9"
   style="fill:#4d4d4d;fill-opacity:1;stroke:#000000;stroke-width:0;stroke-miterlimit:10;stroke-dasharray:none" />

	<path
   class="st3"
   d="m 231.91495,303.14492 c 0,4.57728 3.05152,6.48448 6.29376,6.48448 2.47936,0 3.8144,-0.38144 5.14944,-0.9536 l 0.57216,2.47936 c -1.14432,0.57216 -3.24224,1.14432 -6.10304,1.14432 -5.7216,0 -9.15456,-3.8144 -9.15456,-9.34528 0,-5.53088 3.24224,-10.10816 8.77312,-10.10816 6.10304,0 7.62881,5.34016 7.62881,8.77312 0,0.76288 0,1.14432 -0.19072,1.52576 z m 9.91744,-2.47936 c 0,-2.09792 -0.9536,-5.53088 -4.768,-5.53088 -3.43296,0 -4.95872,3.24224 -5.14944,5.53088 z"
   id="path10"
   style="fill:#4d4d4d;fill-opacity:1;stroke:#000000;stroke-width:0;stroke-miterlimit:10;stroke-dasharray:none" />

	<path
   class="st3"
   d="m 249.27048,299.1398 c 0,-2.28864 0,-4.00512 -0.19072,-5.7216 h 3.05152 l 0.19072,3.62368 h 0.19072 c 0.76288,-2.47936 2.8608,-4.00512 5.14944,-4.00512 0.38144,0 0.57216,0 0.9536,0.19072 v 3.24224 c -0.38144,0 -0.76288,-0.19072 -1.14432,-0.19072 -2.47936,0 -4.00512,1.71648 -4.57728,4.38656 0,0.38144 -0.19072,0.9536 -0.19072,1.52576 v 9.91744 h -3.43296 z"
   id="path11"
   style="fill:#4d4d4d;fill-opacity:1;stroke:#000000;stroke-width:0;stroke-miterlimit:10;stroke-dasharray:none" />

	<path
   class="st3"
   d="m 263.38376,303.14492 c 0,4.57728 3.05152,6.48448 6.29376,6.48448 2.47936,0 3.8144,-0.38144 5.14945,-0.9536 l 0.57216,2.47936 c -1.14432,0.57216 -3.24225,1.14432 -6.10305,1.14432 -5.7216,0 -9.15456,-3.8144 -9.15456,-9.34528 0,-5.53088 3.24224,-10.10816 8.77312,-10.10816 6.10305,0 7.62881,5.34016 7.62881,8.77312 0,0.76288 0,1.14432 -0.19072,1.52576 z m 9.91744,-2.47936 c 0,-2.09792 -0.9536,-5.53088 -4.768,-5.53088 -3.43296,0 -4.95872,3.24224 -5.14944,5.53088 z"
   id="path12"
   style="fill:#4d4d4d;fill-opacity:1;stroke:#000000;stroke-width:0;stroke-miterlimit:10;stroke-dasharray:none" />

	<path
   class="st3"
   d="m 280.73929,299.1398 c 0,-2.28864 0,-4.00512 -0.19072,-5.7216 h 3.05152 l 0.19072,3.62368 h 0.19072 c 0.76288,-2.47936 2.8608,-4.00512 5.14944,-4.00512 0.38144,0 0.57216,0 0.9536,0.19072 v 3.24224 c -0.38144,0 -0.76288,-0.19072 -1.14432,-0.19072 -2.47936,0 -4.00512,1.71648 -4.57728,4.38656 0,0.38144 -0.19072,0.9536 -0.19072,1.52576 v 9.91744 h -3.43296 z"
   id="path13"
   style="fill:#4d4d4d;fill-opacity:1;stroke:#000000;stroke-width:0;stroke-miterlimit:10;stroke-dasharray:none" />

	<path
   class="st3"
   d="m 84.488341,320.88188 h 1.52576 v 5.53089 0 c 0.38144,-0.38144 0.57216,-0.76288 0.9536,-1.14432 l 3.432964,-4.38657 h 1.9072 l -4.19584,4.95873 4.57728,6.6752 h -1.71648 l -3.814404,-5.7216 -1.14432,1.33504 v 4.38656 h -1.52576 z"
   id="path14"
   style="fill:#4d4d4d;fill-opacity:1;stroke:#000000;stroke-width:0;stroke-miterlimit:10;stroke-dasharray:none" />

	<path
   class="st3"
   d="m 94.024345,324.12413 1.71648,4.95872 c 0.19072,0.57216 0.38144,1.14432 0.57216,1.71648 v 0 c 0.19072,-0.57216 0.38144,-1.14432 0.57216,-1.71648 l 1.71649,-4.768 h 1.525755 l -2.288645,5.91232 c -1.14432,2.8608 -1.71648,4.19584 -2.8608,5.14944 -0.76288,0.57216 -1.52576,0.9536 -1.9072,0.9536 l -0.38144,-1.33504 c 0.38144,-0.19072 0.9536,-0.38144 1.33504,-0.76288 0.38144,-0.38144 0.9536,-0.9536 1.33504,-1.71648 0,-0.19072 0.19072,-0.19072 0.19072,-0.38144 0,-0.19072 0,-0.19072 -0.19072,-0.38144 l -3.05152,-7.6288 z"
   id="path15"
   style="fill:#4d4d4d;fill-opacity:1;stroke:#000000;stroke-width:0;stroke-miterlimit:10;stroke-dasharray:none" />

	<path
   class="st3"
   d="m 101.46243,320.30972 h 1.52576 v 12.20609 h -1.52576 z"
   id="path16"
   style="fill:#4d4d4d;fill-opacity:1;stroke:#000000;stroke-width:0;stroke-miterlimit:10;stroke-dasharray:none" />

	<path
   class="st3"
   d="m 106.23043,328.51069 c 0,2.09792 1.33504,2.8608 2.8608,2.8608 1.14432,0 1.71648,-0.19072 2.28864,-0.38144 l 0.19072,1.14432 c -0.57216,0.19072 -1.52576,0.57216 -2.67008,0.57216 -2.47936,0 -4.00512,-1.71648 -4.00512,-4.19584 0,-2.47936 1.52576,-4.38656 3.8144,-4.38656 2.67008,0 3.43296,2.28864 3.43296,3.8144 0,0.38144 0,0.57216 0,0.76288 h -5.91232 z m 4.57728,-1.14432 c 0,-0.9536 -0.38144,-2.47936 -2.09792,-2.47936 -1.52576,0 -2.09792,1.33504 -2.28864,2.47936 z"
   id="path17"
   style="fill:#4d4d4d;fill-opacity:1;stroke:#000000;stroke-width:0;stroke-miterlimit:10;stroke-dasharray:none" />

	<path
   class="st3"
   d="m 86.395541,349.29917 -1.14432,3.62369 h -1.52576 l 4.005124,-11.44321 h 1.71648 l 4.00512,11.44321 h -1.9072 l -1.14432,-3.62369 z m 3.623684,-1.14432 -1.14432,-3.24224 c -0.19072,-0.76288 -0.38144,-1.52576 -0.57216,-2.09792 v 0 c -0.19072,0.76288 -0.38144,1.33504 -0.57216,2.09792 l -1.144324,3.24224 z"
   id="path18"
   style="fill:#4d4d4d;fill-opacity:1;stroke:#000000;stroke-width:0;stroke-miterlimit:10;stroke-dasharray:none" />

	<path
   class="st3"
   d="m 101.84387,340.71677 v 9.91745 c 0,0.76288 0,1.52576 0,2.09792 h -1.33504 v -1.52576 0 c -0.38144,0.9536 -1.525755,1.71648 -2.860805,1.71648 -1.9072,0 -3.62368,-1.71648 -3.62368,-4.19585 0,-2.67008 1.71648,-4.38656 3.62368,-4.38656 1.33505,0 2.09793,0.57216 2.479365,1.33504 v 0 -4.95872 z m -1.52576,7.24736 c 0,-0.19072 0,-0.38144 0,-0.57216 -0.19072,-0.9536 -0.953595,-1.71648 -2.097925,-1.71648 -1.52576,0 -2.47936,1.33504 -2.47936,3.24224 0,1.71649 0.76288,3.05153 2.47936,3.05153 0.95361,0 1.907205,-0.57216 2.288645,-1.71648 0,-0.19073 0,-0.38145 0,-0.57217 v -1.71648 z"
   id="path19"
   style="fill:#4d4d4d;fill-opacity:1;stroke:#000000;stroke-width:0;stroke-miterlimit:10;stroke-dasharray:none" />

	<path
   class="st3"
   d="m 106.03971,342.24253 c 0,0.57216 -0.38144,0.9536 -0.9536,0.9536 -0.57216,0 -0.9536,-0.38144 -0.9536,-0.9536 0,-0.57216 0.38144,-0.9536 0.9536,-0.9536 0.57216,0 0.9536,0.57216 0.9536,0.9536 z m -1.71648,10.68033 v -8.20097 h 1.52576 v 8.20097 z"
   id="path20"
   style="fill:#4d4d4d;fill-opacity:1;stroke:#000000;stroke-width:0;stroke-miterlimit:10;stroke-dasharray:none" />

	<path
   class="st3"
   d="m 108.32835,352.92286 c 0,-0.57216 0,-1.33504 0,-2.09792 v -9.91745 h 1.52576 v 5.14944 0 c 0.57216,-0.9536 1.52576,-1.52576 2.8608,-1.52576 2.09792,0 3.43296,1.71648 3.43296,4.19584 0,3.05153 -1.9072,4.38657 -3.62368,4.38657 -1.14432,0 -2.09792,-0.38144 -2.8608,-1.52576 v 0 1.33504 z m 1.52576,-3.43297 c 0,0.19072 0,0.38144 0,0.57216 0.38144,0.95361 1.14432,1.71649 2.28864,1.71649 1.52576,0 2.47936,-1.33504 2.47936,-3.24225 0,-1.71648 -0.76288,-3.05152 -2.47936,-3.05152 -0.9536,0 -1.9072,0.76288 -2.28864,1.9072 0,0.19072 0,0.38144 0,0.57216 z"
   id="path21"
   style="fill:#4d4d4d;fill-opacity:1;stroke:#000000;stroke-width:0;stroke-miterlimit:10;stroke-dasharray:none" />

</g>
  </g>
</svg>
